# xmcd
#
# Track frame offsets: 
#        150
#        21482
#        52709
#        72234
#        87098
#
# Disc length: 1422 seconds
#
# Revision: 0
# Processed by: cddbd v1.5.2PL0 Copyright (c) Steve Scherf et al.
# Submitted via: ExactAudioCopy v1.0b3
#
DISCID=36058c05
DTITLE=Parchman Farm - Parchman Farm
DYEAR=2004
DGENRE=Rock
TTITLE0=Mirror Spirit
TTITLE1=Too Many People
TTITLE2=Chosen Child
TTITLE3=Say Yeah
TTITLE4=Cook You Up
EXTD=
EXTT0=
EXTT1=
EXTT2=
EXTT3=
EXTT4=
PLAYORDER=
